<mxfile host="app.diagrams.net" agent="Mozilla/5.0 (X11; Linux x86_64) AppleWebKit/537.36 (KHTML, like Gecko) Chrome/133.0.0.0 Safari/537.36" version="26.0.16">
  <diagram name="Page-1" id="2YBvvXClWsGukQMizWep">
    <mxGraphModel dx="1697" dy="1062" grid="1" gridSize="10" guides="1" tooltips="1" connect="1" arrows="1" fold="1" page="1" pageScale="1" pageWidth="850" pageHeight="1100" math="0" shadow="0">
      <root>
        <mxCell id="0" />
        <mxCell id="1" parent="0" />
        <mxCell id="aM9ryv3xv72pqoxQDRHE-1" value="Client" style="shape=umlLifeline;perimeter=lifelinePerimeter;whiteSpace=wrap;html=1;container=0;dropTarget=0;collapsible=0;recursiveResize=0;outlineConnect=0;portConstraint=eastwest;newEdgeStyle={&quot;edgeStyle&quot;:&quot;elbowEdgeStyle&quot;,&quot;elbow&quot;:&quot;vertical&quot;,&quot;curved&quot;:0,&quot;rounded&quot;:0};" parent="1" vertex="1">
          <mxGeometry x="50" y="40" width="100" height="720" as="geometry" />
        </mxCell>
        <mxCell id="aM9ryv3xv72pqoxQDRHE-5" value="Presence Service" style="shape=umlLifeline;perimeter=lifelinePerimeter;whiteSpace=wrap;html=1;container=0;dropTarget=0;collapsible=0;recursiveResize=0;outlineConnect=0;portConstraint=eastwest;newEdgeStyle={&quot;edgeStyle&quot;:&quot;elbowEdgeStyle&quot;,&quot;elbow&quot;:&quot;vertical&quot;,&quot;curved&quot;:0,&quot;rounded&quot;:0};" parent="1" vertex="1">
          <mxGeometry x="490" y="40" width="100" height="720" as="geometry" />
        </mxCell>
        <mxCell id="aM9ryv3xv72pqoxQDRHE-6" value="" style="html=1;points=[];perimeter=orthogonalPerimeter;outlineConnect=0;targetShapes=umlLifeline;portConstraint=eastwest;newEdgeStyle={&quot;edgeStyle&quot;:&quot;elbowEdgeStyle&quot;,&quot;elbow&quot;:&quot;vertical&quot;,&quot;curved&quot;:0,&quot;rounded&quot;:0};" parent="aM9ryv3xv72pqoxQDRHE-5" vertex="1">
          <mxGeometry x="45" y="100" width="10" height="60" as="geometry" />
        </mxCell>
        <mxCell id="-MpHVqgW3xpwjNpmj-tX-1" value="Authentification Service" style="shape=umlLifeline;perimeter=lifelinePerimeter;whiteSpace=wrap;html=1;container=0;dropTarget=0;collapsible=0;recursiveResize=0;outlineConnect=0;portConstraint=eastwest;newEdgeStyle={&quot;edgeStyle&quot;:&quot;elbowEdgeStyle&quot;,&quot;elbow&quot;:&quot;vertical&quot;,&quot;curved&quot;:0,&quot;rounded&quot;:0};" vertex="1" parent="1">
          <mxGeometry x="250" y="40" width="140" height="720" as="geometry" />
        </mxCell>
        <mxCell id="-MpHVqgW3xpwjNpmj-tX-2" value="" style="html=1;points=[];perimeter=orthogonalPerimeter;outlineConnect=0;targetShapes=umlLifeline;portConstraint=eastwest;newEdgeStyle={&quot;edgeStyle&quot;:&quot;elbowEdgeStyle&quot;,&quot;elbow&quot;:&quot;vertical&quot;,&quot;curved&quot;:0,&quot;rounded&quot;:0};" vertex="1" parent="-MpHVqgW3xpwjNpmj-tX-1">
          <mxGeometry x="60" y="70" width="10" height="30" as="geometry" />
        </mxCell>
        <mxCell id="-MpHVqgW3xpwjNpmj-tX-3" value="" style="endArrow=classic;html=1;rounded=0;" edge="1" parent="1" target="-MpHVqgW3xpwjNpmj-tX-1">
          <mxGeometry width="50" height="50" relative="1" as="geometry">
            <mxPoint x="95" y="110" as="sourcePoint" />
            <mxPoint x="450" y="110" as="targetPoint" />
          </mxGeometry>
        </mxCell>
        <mxCell id="-MpHVqgW3xpwjNpmj-tX-4" value="Authentification" style="edgeLabel;html=1;align=center;verticalAlign=middle;resizable=0;points=[];" vertex="1" connectable="0" parent="-MpHVqgW3xpwjNpmj-tX-3">
          <mxGeometry x="-0.0275" relative="1" as="geometry">
            <mxPoint x="3" y="-10" as="offset" />
          </mxGeometry>
        </mxCell>
        <mxCell id="-MpHVqgW3xpwjNpmj-tX-5" value="" style="endArrow=classic;html=1;rounded=0;dashed=1;" edge="1" parent="1" source="-MpHVqgW3xpwjNpmj-tX-2">
          <mxGeometry width="50" height="50" relative="1" as="geometry">
            <mxPoint x="324.5" y="130" as="sourcePoint" />
            <mxPoint x="89.5" y="130" as="targetPoint" />
          </mxGeometry>
        </mxCell>
        <mxCell id="-MpHVqgW3xpwjNpmj-tX-6" value="JWT" style="edgeLabel;html=1;align=center;verticalAlign=middle;resizable=0;points=[];" vertex="1" connectable="0" parent="-MpHVqgW3xpwjNpmj-tX-5">
          <mxGeometry x="-0.0817" relative="1" as="geometry">
            <mxPoint x="-6" y="-10" as="offset" />
          </mxGeometry>
        </mxCell>
        <mxCell id="-MpHVqgW3xpwjNpmj-tX-7" value="" style="endArrow=classic;html=1;rounded=0;" edge="1" parent="1">
          <mxGeometry width="50" height="50" relative="1" as="geometry">
            <mxPoint x="324.5" y="140" as="sourcePoint" />
            <mxPoint x="539.5" y="140" as="targetPoint" />
          </mxGeometry>
        </mxCell>
        <mxCell id="-MpHVqgW3xpwjNpmj-tX-8" value="Connexion utilisateur" style="edgeLabel;html=1;align=center;verticalAlign=middle;resizable=0;points=[];" vertex="1" connectable="0" parent="-MpHVqgW3xpwjNpmj-tX-7">
          <mxGeometry x="-0.0275" relative="1" as="geometry">
            <mxPoint x="3" y="-10" as="offset" />
          </mxGeometry>
        </mxCell>
        <mxCell id="-MpHVqgW3xpwjNpmj-tX-9" value="WebRTC" style="shape=umlLifeline;perimeter=lifelinePerimeter;whiteSpace=wrap;html=1;container=0;dropTarget=0;collapsible=0;recursiveResize=0;outlineConnect=0;portConstraint=eastwest;newEdgeStyle={&quot;edgeStyle&quot;:&quot;elbowEdgeStyle&quot;,&quot;elbow&quot;:&quot;vertical&quot;,&quot;curved&quot;:0,&quot;rounded&quot;:0};" vertex="1" parent="1">
          <mxGeometry x="690" y="40" width="100" height="720" as="geometry" />
        </mxCell>
        <mxCell id="-MpHVqgW3xpwjNpmj-tX-10" value="" style="html=1;points=[];perimeter=orthogonalPerimeter;outlineConnect=0;targetShapes=umlLifeline;portConstraint=eastwest;newEdgeStyle={&quot;edgeStyle&quot;:&quot;elbowEdgeStyle&quot;,&quot;elbow&quot;:&quot;vertical&quot;,&quot;curved&quot;:0,&quot;rounded&quot;:0};" vertex="1" parent="-MpHVqgW3xpwjNpmj-tX-9">
          <mxGeometry x="45" y="160" width="10" height="60" as="geometry" />
        </mxCell>
        <mxCell id="-MpHVqgW3xpwjNpmj-tX-11" value="" style="endArrow=classic;html=1;rounded=0;" edge="1" parent="1" source="aM9ryv3xv72pqoxQDRHE-5" target="-MpHVqgW3xpwjNpmj-tX-10">
          <mxGeometry width="50" height="50" relative="1" as="geometry">
            <mxPoint x="620" y="250" as="sourcePoint" />
            <mxPoint x="670" y="200" as="targetPoint" />
            <Array as="points">
              <mxPoint x="670" y="200" />
            </Array>
          </mxGeometry>
        </mxCell>
        <mxCell id="-MpHVqgW3xpwjNpmj-tX-12" value="Mise à jour du status" style="edgeLabel;html=1;align=center;verticalAlign=middle;resizable=0;points=[];" vertex="1" connectable="0" parent="-MpHVqgW3xpwjNpmj-tX-11">
          <mxGeometry x="-0.109" y="4" relative="1" as="geometry">
            <mxPoint x="14" y="-6" as="offset" />
          </mxGeometry>
        </mxCell>
        <mxCell id="-MpHVqgW3xpwjNpmj-tX-13" value="" style="endArrow=classic;html=1;rounded=0;dashed=1;" edge="1" parent="1">
          <mxGeometry width="50" height="50" relative="1" as="geometry">
            <mxPoint x="739.5000000000005" y="260" as="sourcePoint" />
            <mxPoint x="88.83333333333348" y="260" as="targetPoint" />
          </mxGeometry>
        </mxCell>
        <mxCell id="-MpHVqgW3xpwjNpmj-tX-14" value="Statue connecté" style="edgeLabel;html=1;align=center;verticalAlign=middle;resizable=0;points=[];" vertex="1" connectable="0" parent="-MpHVqgW3xpwjNpmj-tX-13">
          <mxGeometry x="-0.0817" relative="1" as="geometry">
            <mxPoint x="-42" y="-10" as="offset" />
          </mxGeometry>
        </mxCell>
        <mxCell id="-MpHVqgW3xpwjNpmj-tX-15" value="Message Service" style="shape=umlLifeline;perimeter=lifelinePerimeter;whiteSpace=wrap;html=1;container=0;dropTarget=0;collapsible=0;recursiveResize=0;outlineConnect=0;portConstraint=eastwest;newEdgeStyle={&quot;edgeStyle&quot;:&quot;elbowEdgeStyle&quot;,&quot;elbow&quot;:&quot;vertical&quot;,&quot;curved&quot;:0,&quot;rounded&quot;:0};" vertex="1" parent="1">
          <mxGeometry x="890" y="40" width="100" height="720" as="geometry" />
        </mxCell>
        <mxCell id="-MpHVqgW3xpwjNpmj-tX-16" value="" style="html=1;points=[];perimeter=orthogonalPerimeter;outlineConnect=0;targetShapes=umlLifeline;portConstraint=eastwest;newEdgeStyle={&quot;edgeStyle&quot;:&quot;elbowEdgeStyle&quot;,&quot;elbow&quot;:&quot;vertical&quot;,&quot;curved&quot;:0,&quot;rounded&quot;:0};" vertex="1" parent="-MpHVqgW3xpwjNpmj-tX-15">
          <mxGeometry x="45" y="320" width="10" height="220" as="geometry" />
        </mxCell>
        <mxCell id="-MpHVqgW3xpwjNpmj-tX-18" value="" style="endArrow=classic;html=1;rounded=0;" edge="1" parent="1" target="-MpHVqgW3xpwjNpmj-tX-15">
          <mxGeometry width="50" height="50" relative="1" as="geometry">
            <mxPoint x="90" y="360" as="sourcePoint" />
            <mxPoint x="305" y="360" as="targetPoint" />
          </mxGeometry>
        </mxCell>
        <mxCell id="-MpHVqgW3xpwjNpmj-tX-19" value="Envoie un message avec une image" style="edgeLabel;html=1;align=center;verticalAlign=middle;resizable=0;points=[];" vertex="1" connectable="0" parent="-MpHVqgW3xpwjNpmj-tX-18">
          <mxGeometry x="-0.0275" relative="1" as="geometry">
            <mxPoint x="3" y="-10" as="offset" />
          </mxGeometry>
        </mxCell>
        <mxCell id="-MpHVqgW3xpwjNpmj-tX-24" value="Media Service" style="shape=umlLifeline;perimeter=lifelinePerimeter;whiteSpace=wrap;html=1;container=0;dropTarget=0;collapsible=0;recursiveResize=0;outlineConnect=0;portConstraint=eastwest;newEdgeStyle={&quot;edgeStyle&quot;:&quot;elbowEdgeStyle&quot;,&quot;elbow&quot;:&quot;vertical&quot;,&quot;curved&quot;:0,&quot;rounded&quot;:0};" vertex="1" parent="1">
          <mxGeometry x="1090" y="40" width="100" height="720" as="geometry" />
        </mxCell>
        <mxCell id="-MpHVqgW3xpwjNpmj-tX-25" value="" style="html=1;points=[];perimeter=orthogonalPerimeter;outlineConnect=0;targetShapes=umlLifeline;portConstraint=eastwest;newEdgeStyle={&quot;edgeStyle&quot;:&quot;elbowEdgeStyle&quot;,&quot;elbow&quot;:&quot;vertical&quot;,&quot;curved&quot;:0,&quot;rounded&quot;:0};" vertex="1" parent="-MpHVqgW3xpwjNpmj-tX-24">
          <mxGeometry x="45" y="380" width="10" height="120" as="geometry" />
        </mxCell>
        <mxCell id="-MpHVqgW3xpwjNpmj-tX-26" value="" style="endArrow=classic;html=1;rounded=0;" edge="1" parent="1">
          <mxGeometry width="50" height="50" relative="1" as="geometry">
            <mxPoint x="939.1666666666665" y="420" as="sourcePoint" />
            <mxPoint x="1139.5" y="420" as="targetPoint" />
          </mxGeometry>
        </mxCell>
        <mxCell id="-MpHVqgW3xpwjNpmj-tX-27" value="Upload media" style="edgeLabel;html=1;align=center;verticalAlign=middle;resizable=0;points=[];" vertex="1" connectable="0" parent="-MpHVqgW3xpwjNpmj-tX-26">
          <mxGeometry x="-0.0275" relative="1" as="geometry">
            <mxPoint x="3" y="-10" as="offset" />
          </mxGeometry>
        </mxCell>
        <mxCell id="-MpHVqgW3xpwjNpmj-tX-28" value="Kafka" style="shape=umlLifeline;perimeter=lifelinePerimeter;whiteSpace=wrap;html=1;container=0;dropTarget=0;collapsible=0;recursiveResize=0;outlineConnect=0;portConstraint=eastwest;newEdgeStyle={&quot;edgeStyle&quot;:&quot;elbowEdgeStyle&quot;,&quot;elbow&quot;:&quot;vertical&quot;,&quot;curved&quot;:0,&quot;rounded&quot;:0};" vertex="1" parent="1">
          <mxGeometry x="1290" y="40" width="100" height="720" as="geometry" />
        </mxCell>
        <mxCell id="-MpHVqgW3xpwjNpmj-tX-29" value="" style="html=1;points=[];perimeter=orthogonalPerimeter;outlineConnect=0;targetShapes=umlLifeline;portConstraint=eastwest;newEdgeStyle={&quot;edgeStyle&quot;:&quot;elbowEdgeStyle&quot;,&quot;elbow&quot;:&quot;vertical&quot;,&quot;curved&quot;:0,&quot;rounded&quot;:0};" vertex="1" parent="-MpHVqgW3xpwjNpmj-tX-28">
          <mxGeometry x="45" y="440" width="10" height="60" as="geometry" />
        </mxCell>
        <mxCell id="-MpHVqgW3xpwjNpmj-tX-30" value="" style="endArrow=classic;html=1;rounded=0;" edge="1" parent="1">
          <mxGeometry width="50" height="50" relative="1" as="geometry">
            <mxPoint x="1139.9966666666664" y="480" as="sourcePoint" />
            <mxPoint x="1340.33" y="480" as="targetPoint" />
          </mxGeometry>
        </mxCell>
        <mxCell id="-MpHVqgW3xpwjNpmj-tX-31" value="Traitement du message" style="edgeLabel;html=1;align=center;verticalAlign=middle;resizable=0;points=[];" vertex="1" connectable="0" parent="-MpHVqgW3xpwjNpmj-tX-30">
          <mxGeometry x="-0.0275" relative="1" as="geometry">
            <mxPoint x="3" y="-10" as="offset" />
          </mxGeometry>
        </mxCell>
        <mxCell id="-MpHVqgW3xpwjNpmj-tX-33" value="" style="endArrow=classic;html=1;rounded=0;dashed=1;" edge="1" parent="1">
          <mxGeometry width="50" height="50" relative="1" as="geometry">
            <mxPoint x="1340.6700000000005" y="540" as="sourcePoint" />
            <mxPoint x="1140" y="540" as="targetPoint" />
          </mxGeometry>
        </mxCell>
        <mxCell id="-MpHVqgW3xpwjNpmj-tX-34" value="Confirmation du traitement" style="edgeLabel;html=1;align=center;verticalAlign=middle;resizable=0;points=[];" vertex="1" connectable="0" parent="-MpHVqgW3xpwjNpmj-tX-33">
          <mxGeometry x="-0.0817" relative="1" as="geometry">
            <mxPoint x="-9" y="-10" as="offset" />
          </mxGeometry>
        </mxCell>
        <mxCell id="-MpHVqgW3xpwjNpmj-tX-35" value="" style="endArrow=classic;html=1;rounded=0;dashed=1;" edge="1" parent="1">
          <mxGeometry width="50" height="50" relative="1" as="geometry">
            <mxPoint x="1140.6700000000005" y="540" as="sourcePoint" />
            <mxPoint x="940" y="540" as="targetPoint" />
          </mxGeometry>
        </mxCell>
        <mxCell id="-MpHVqgW3xpwjNpmj-tX-36" value="Confirmation de l&#39;upload" style="edgeLabel;html=1;align=center;verticalAlign=middle;resizable=0;points=[];" vertex="1" connectable="0" parent="-MpHVqgW3xpwjNpmj-tX-35">
          <mxGeometry x="-0.0817" relative="1" as="geometry">
            <mxPoint x="-9" y="-10" as="offset" />
          </mxGeometry>
        </mxCell>
        <mxCell id="-MpHVqgW3xpwjNpmj-tX-37" value="" style="endArrow=classic;html=1;rounded=0;dashed=1;entryX=0.467;entryY=0.625;entryDx=0;entryDy=0;entryPerimeter=0;" edge="1" parent="1">
          <mxGeometry width="50" height="50" relative="1" as="geometry">
            <mxPoint x="939.5" y="540" as="sourcePoint" />
            <mxPoint x="86.70000000000005" y="540" as="targetPoint" />
          </mxGeometry>
        </mxCell>
        <mxCell id="-MpHVqgW3xpwjNpmj-tX-38" value="Confirmation de l&#39;envoie du message" style="edgeLabel;html=1;align=center;verticalAlign=middle;resizable=0;points=[];" vertex="1" connectable="0" parent="-MpHVqgW3xpwjNpmj-tX-37">
          <mxGeometry x="-0.0817" relative="1" as="geometry">
            <mxPoint x="-9" y="-10" as="offset" />
          </mxGeometry>
        </mxCell>
        <mxCell id="-MpHVqgW3xpwjNpmj-tX-40" value="Notification Service" style="shape=umlLifeline;perimeter=lifelinePerimeter;whiteSpace=wrap;html=1;container=0;dropTarget=0;collapsible=0;recursiveResize=0;outlineConnect=0;portConstraint=eastwest;newEdgeStyle={&quot;edgeStyle&quot;:&quot;elbowEdgeStyle&quot;,&quot;elbow&quot;:&quot;vertical&quot;,&quot;curved&quot;:0,&quot;rounded&quot;:0};" vertex="1" parent="1">
          <mxGeometry x="1490" y="40" width="100" height="720" as="geometry" />
        </mxCell>
        <mxCell id="-MpHVqgW3xpwjNpmj-tX-41" value="" style="html=1;points=[];perimeter=orthogonalPerimeter;outlineConnect=0;targetShapes=umlLifeline;portConstraint=eastwest;newEdgeStyle={&quot;edgeStyle&quot;:&quot;elbowEdgeStyle&quot;,&quot;elbow&quot;:&quot;vertical&quot;,&quot;curved&quot;:0,&quot;rounded&quot;:0};" vertex="1" parent="-MpHVqgW3xpwjNpmj-tX-40">
          <mxGeometry x="45" y="540" width="10" height="60" as="geometry" />
        </mxCell>
        <mxCell id="-MpHVqgW3xpwjNpmj-tX-42" value="" style="endArrow=classic;html=1;rounded=0;" edge="1" parent="1" target="-MpHVqgW3xpwjNpmj-tX-40">
          <mxGeometry width="50" height="50" relative="1" as="geometry">
            <mxPoint x="939.9966666666666" y="580" as="sourcePoint" />
            <mxPoint x="1140.33" y="580" as="targetPoint" />
          </mxGeometry>
        </mxCell>
        <mxCell id="-MpHVqgW3xpwjNpmj-tX-43" value="Déclenche notification" style="edgeLabel;html=1;align=center;verticalAlign=middle;resizable=0;points=[];" vertex="1" connectable="0" parent="-MpHVqgW3xpwjNpmj-tX-42">
          <mxGeometry x="-0.0275" relative="1" as="geometry">
            <mxPoint x="3" y="-10" as="offset" />
          </mxGeometry>
        </mxCell>
        <mxCell id="-MpHVqgW3xpwjNpmj-tX-44" value="WebRTC" style="shape=umlLifeline;perimeter=lifelinePerimeter;whiteSpace=wrap;html=1;container=0;dropTarget=0;collapsible=0;recursiveResize=0;outlineConnect=0;portConstraint=eastwest;newEdgeStyle={&quot;edgeStyle&quot;:&quot;elbowEdgeStyle&quot;,&quot;elbow&quot;:&quot;vertical&quot;,&quot;curved&quot;:0,&quot;rounded&quot;:0};" vertex="1" parent="1">
          <mxGeometry x="1690" y="40" width="100" height="720" as="geometry" />
        </mxCell>
        <mxCell id="-MpHVqgW3xpwjNpmj-tX-45" value="" style="html=1;points=[];perimeter=orthogonalPerimeter;outlineConnect=0;targetShapes=umlLifeline;portConstraint=eastwest;newEdgeStyle={&quot;edgeStyle&quot;:&quot;elbowEdgeStyle&quot;,&quot;elbow&quot;:&quot;vertical&quot;,&quot;curved&quot;:0,&quot;rounded&quot;:0};" vertex="1" parent="-MpHVqgW3xpwjNpmj-tX-44">
          <mxGeometry x="45" y="600" width="10" height="60" as="geometry" />
        </mxCell>
        <mxCell id="-MpHVqgW3xpwjNpmj-tX-46" value="" style="endArrow=classic;html=1;rounded=0;" edge="1" parent="1">
          <mxGeometry width="50" height="50" relative="1" as="geometry">
            <mxPoint x="1539.9966666666664" y="640" as="sourcePoint" />
            <mxPoint x="1740.33" y="640" as="targetPoint" />
          </mxGeometry>
        </mxCell>
        <mxCell id="-MpHVqgW3xpwjNpmj-tX-47" value="Diffuse notification" style="edgeLabel;html=1;align=center;verticalAlign=middle;resizable=0;points=[];" vertex="1" connectable="0" parent="-MpHVqgW3xpwjNpmj-tX-46">
          <mxGeometry x="-0.0275" relative="1" as="geometry">
            <mxPoint x="3" y="-10" as="offset" />
          </mxGeometry>
        </mxCell>
        <mxCell id="-MpHVqgW3xpwjNpmj-tX-48" value="" style="endArrow=classic;html=1;rounded=0;dashed=1;" edge="1" parent="1" target="aM9ryv3xv72pqoxQDRHE-1">
          <mxGeometry width="50" height="50" relative="1" as="geometry">
            <mxPoint x="1742.8" y="700" as="sourcePoint" />
            <mxPoint x="890" y="700" as="targetPoint" />
          </mxGeometry>
        </mxCell>
        <mxCell id="-MpHVqgW3xpwjNpmj-tX-49" value="Envoie notification" style="edgeLabel;html=1;align=center;verticalAlign=middle;resizable=0;points=[];" vertex="1" connectable="0" parent="-MpHVqgW3xpwjNpmj-tX-48">
          <mxGeometry x="-0.0817" relative="1" as="geometry">
            <mxPoint x="-9" y="-10" as="offset" />
          </mxGeometry>
        </mxCell>
      </root>
    </mxGraphModel>
  </diagram>
</mxfile>
